<?xml version="1.0" encoding="UTF-8"?>
<svg width="360px" height="358px" viewBox="0 0 360 358" version="1.1" xmlns="http://www.w3.org/2000/svg" xmlns:xlink="http://www.w3.org/1999/xlink">
    <!-- Generator: Sketch 43.2 (39069) - http://www.bohemiancoding.com/sketch -->
    <title>about-us-donuts-1</title>
    <desc>Created with Sketch.</desc>
    <defs></defs>
    <g id="Desktop-content-v0.7-Investors" stroke="none" stroke-width="1" fill="none" fill-rule="evenodd">
        <g id="About-us---Who-we-are" transform="translate(-237.000000, -1022.000000)" fill-rule="nonzero">
            <g id="about-us-donuts-1" transform="translate(404.000000, 1200.500000) rotate(-90.000000) translate(-404.000000, -1200.500000) translate(199.000000, 1008.000000)">
                <g id="Group-3" transform="translate(205.000000, 86.010638) rotate(45.000000) translate(-205.000000, -86.010638) translate(144.843305, 25.744681)">
                    <path d="M59.7768302,0 C26.8556309,2.73111813e-14 0.167725911,26.7733139 0.167725911,59.7998703 C0.167725911,92.8264267 26.8556309,119.599741 59.7768302,119.599741 C92.6980294,119.599741 119.385934,92.8264267 119.385934,59.7998703 C119.385934,43.9399586 113.105708,28.7296276 101.926832,17.5149765 C90.7479565,6.30032539 75.5861476,9.71139504e-16 59.7768302,0 L59.7768302,0 Z M59.7768302,80.74411 C48.2614982,80.7441036 38.9253517,71.381349 38.9213239,59.8291655 C38.9172962,48.2769819 48.2469117,38.9076776 59.7622408,38.89959 C71.27757,38.8915023 80.6202533,48.2476924 80.6323492,59.7998703 C80.6381633,65.3526061 78.4434587,70.6799132 74.5316599,74.6083531 C70.619861,78.536793 65.3118555,80.7441131 59.7768302,80.74411 Z" id="Shape" fill="#E5007D"></path>
                    <path d="M119.385934,59.7998703 C119.382395,56.2178736 119.059809,52.6433587 118.422024,49.1189673 C84.6324489,58.2758147 58.2474962,84.7703199 49.1519072,118.6767 C66.5406356,121.851312 84.4368841,117.118028 98.0053104,105.75572 C111.573737,94.3934128 119.41403,77.5747137 119.407842,59.8438246" id="Shape" fill="#FFCC00"></path>
                </g>
                <g id="Group-2" transform="translate(205.000000, 324.734043) rotate(-90.000000) translate(-205.000000, -324.734043) translate(144.843305, 264.468085)">
                    <path d="M101.926009,18.0138557 C84.8781081,0.910728683 59.238987,-4.20592222 36.9643057,5.04982474 C14.6896244,14.3055717 0.166080637,36.1109221 0.166080637,60.2979242 C0.166080637,84.4849264 14.6896244,106.290277 36.9643057,115.546024 C59.238987,124.801771 84.8781081,119.68512 101.926009,102.581993 C125.203716,79.2288796 125.203716,41.3669689 101.926009,18.0138557 Z M74.5202801,75.1544888 C66.3735564,83.319168 53.1723394,83.3147817 45.0310085,75.1446908 C36.8896775,66.9745998 36.8896775,53.7311345 45.0310085,45.5610435 C53.1723394,37.3909526 66.3735564,37.3865663 74.5202801,45.5512455 C82.6394659,53.7174776 82.6492596,66.9321996 74.5421872,75.1105345 L74.5202801,75.1544888 Z" id="Shape" fill="#009A93"></path>
                    <path d="M101.926009,18.0138557 C99.3967625,15.4872237 96.6474391,13.1924663 93.7108627,11.1569798 C76.2651187,41.5880092 76.2651187,79.0298164 93.7108627,109.460846 C108.254454,99.3764978 117.58118,83.3320127 119.168065,65.6675918 C120.754949,48.0031708 114.437997,30.5443253 101.926009,18.0138557" id="Shape" fill="#FFC800"></path>
                </g>
                <g id="Group-5" transform="translate(85.854701, 205.372340) rotate(-135.000000) translate(-85.854701, -205.372340) translate(25.698006, 145.106383)">
                    <path d="M59.7039208,0.260015568 C26.7827215,0.260015568 0.0948164846,27.0333294 0.0948164846,60.0598858 C0.0948164846,93.0864422 26.7827215,119.859756 59.7039208,119.859756 C92.62512,119.859756 119.313025,93.0864422 119.313025,60.0598858 C119.313025,27.0333294 92.62512,0.260015568 59.7039208,0.260015568 L59.7039208,0.260015568 Z M59.7039208,81.0041256 C48.1857357,81.0041256 38.8484017,71.6369096 38.8484017,60.081863 C38.8484017,48.5268164 48.1857357,39.1596004 59.7039208,39.1596004 C71.2221059,39.1596004 80.5594398,48.5268164 80.5594398,60.081863 C80.5473498,71.628326 71.2135561,80.9821548 59.7039208,80.9821484 L59.7039208,81.0041256 Z" id="Shape" fill="#004196"></path>
                    <path d="M59.7039208,119.859756 C63.2671783,119.855015 66.8229112,119.5314 70.3288438,118.892761 C61.2237696,85.0009634 34.8395263,58.5239122 1.05872703,49.3789829 C-2.11391019,66.8246155 2.6012569,84.782717 13.929043,98.3966396 C25.2568291,112.010562 42.0269067,119.873786 59.7039208,119.859756" id="Shape" fill="#FFC800"></path>
                </g>
                <g id="Group-4" transform="translate(324.145299, 205.372340) rotate(-45.000000) translate(-324.145299, -205.372340) translate(263.988604, 145.106383)">
                    <path d="M59.8716467,0.238038402 C26.9532997,0.238040632 0.266578015,27.0068909 0.262546868,60.0305856 C0.258515722,93.0542804 26.9387013,119.829687 59.8570473,119.837777 C92.7753934,119.845867 119.468653,93.0835786 119.480751,60.0598858 C119.486562,44.1961667 113.208901,28.9801891 102.029396,17.7607843 C90.8498903,6.54137946 75.6847605,0.23803733 59.8716467,0.238038402 L59.8716467,0.238038402 Z M59.8716467,80.9821484 C51.4343887,80.9910395 43.8229889,75.8991348 40.5880471,68.081729 C37.3531054,60.2643232 39.1320036,51.2616828 45.0949133,45.2733999 C51.0578231,39.2851169 60.0298699,37.4910652 67.8257331,40.728142 C75.6215963,43.9652188 80.705254,51.5956216 80.7052587,60.0598858 C80.705265,71.6063552 71.3812756,80.9700198 59.8716467,80.9821484 L59.8716467,80.9821484 Z" id="Shape" fill="#80156F"></path>
                    <path d="M0.262542396,60.0598858 C0.265964517,63.6418878 0.588551727,67.2164132 1.22645294,70.7407888 C35.013357,61.5985992 61.4054514,35.1220426 70.5184768,1.2270109 C53.1297483,-1.94760177 35.2334998,2.78568271 21.6650736,14.1479901 C8.0966473,25.5102976 0.256353879,42.3289968 0.262542396,60.0598858" id="Shape" fill="#FFCC00"></path>
                </g>
            </g>
        </g>
    </g>
</svg>